<svg id="Layer_1" data-name="Layer 1" xmlns="http://www.w3.org/2000/svg" viewBox="0 0 1024 768"><defs><style>.cls-1,.cls-6{fill:none;}.cls-1,.cls-6,.cls-7{stroke:#000;stroke-miterlimit:10;}.cls-10,.cls-13,.cls-15,.cls-2{font-size:30.33px;font-family:MyriadPro-Regular, Myriad Pro;}.cls-3{letter-spacing:-0.03em;}.cls-4{letter-spacing:0.03em;}.cls-5{letter-spacing:0em;}.cls-6{stroke-linecap:round;stroke-width:2px;}.cls-7{stroke-width:0.5px;}.cls-8{letter-spacing:0em;}.cls-9{letter-spacing:0em;}.cls-10{letter-spacing:-0.03em;}.cls-11{letter-spacing:0em;}.cls-12{letter-spacing:0em;}.cls-13{letter-spacing:-0.01em;}.cls-14{letter-spacing:-0.03em;}.cls-15{letter-spacing:-0.04em;}.cls-16{letter-spacing:0em;}.cls-17{letter-spacing:0.01em;}</style></defs><title>1xEmaGraphStable</title><line class="cls-1" x1="216.5" y1="503.5" x2="863.5" y2="503.5"/><line class="cls-1" x1="216.5" y1="503.5" x2="216.5" y2="494.52"/><line class="cls-1" x1="308.93" y1="503.5" x2="308.93" y2="494.52"/><line class="cls-1" x1="401.36" y1="503.5" x2="401.36" y2="494.52"/><line class="cls-1" x1="493.79" y1="503.5" x2="493.79" y2="494.52"/><line class="cls-1" x1="586.21" y1="503.5" x2="586.21" y2="494.52"/><line class="cls-1" x1="678.64" y1="503.5" x2="678.64" y2="494.52"/><line class="cls-1" x1="771.07" y1="503.5" x2="771.07" y2="494.52"/><line class="cls-1" x1="863.5" y1="503.5" x2="863.5" y2="494.52"/><line class="cls-1" x1="239.61" y1="503.5" x2="239.61" y2="494.52"/><line class="cls-1" x1="262.71" y1="503.5" x2="262.71" y2="494.52"/><line class="cls-1" x1="285.82" y1="503.5" x2="285.82" y2="494.52"/><line class="cls-1" x1="332.04" y1="503.5" x2="332.04" y2="494.52"/><line class="cls-1" x1="355.14" y1="503.5" x2="355.14" y2="494.52"/><line class="cls-1" x1="378.25" y1="503.5" x2="378.25" y2="494.52"/><line class="cls-1" x1="424.46" y1="503.5" x2="424.46" y2="494.52"/><line class="cls-1" x1="447.57" y1="503.5" x2="447.57" y2="494.52"/><line class="cls-1" x1="470.68" y1="503.5" x2="470.68" y2="494.52"/><line class="cls-1" x1="516.89" y1="503.5" x2="516.89" y2="494.52"/><line class="cls-1" x1="540" y1="503.5" x2="540" y2="494.52"/><line class="cls-1" x1="563.11" y1="503.5" x2="563.11" y2="494.52"/><line class="cls-1" x1="609.32" y1="503.5" x2="609.32" y2="494.52"/><line class="cls-1" x1="632.43" y1="503.5" x2="632.43" y2="494.52"/><line class="cls-1" x1="655.54" y1="503.5" x2="655.54" y2="494.52"/><line class="cls-1" x1="701.75" y1="503.5" x2="701.75" y2="494.52"/><line class="cls-1" x1="724.86" y1="503.5" x2="724.86" y2="494.52"/><line class="cls-1" x1="747.96" y1="503.5" x2="747.96" y2="494.52"/><line class="cls-1" x1="794.18" y1="503.5" x2="794.18" y2="494.52"/><line class="cls-1" x1="817.29" y1="503.5" x2="817.29" y2="494.52"/><line class="cls-1" x1="840.39" y1="503.5" x2="840.39" y2="494.52"/><text class="cls-2" transform="translate(190.83 514.87)">0</text><text class="cls-2" transform="translate(158.23 425.12)">Bad</text><text class="cls-2" transform="translate(95.72 335.37)"><tspan class="cls-3">V</tspan><tspan x="15.92" y="0">e</tspan><tspan class="cls-4" x="31.12" y="0">r</tspan><tspan x="41.79" y="0">y Bad</tspan></text><text class="cls-2" transform="translate(136.24 245.62)"><tspan class="cls-5">G</tspan><tspan x="19.74" y="0">ood</tspan></text><text class="cls-2" transform="translate(73.74 155.87)"><tspan class="cls-3">V</tspan><tspan x="15.92" y="0">e</tspan><tspan class="cls-4" x="31.12" y="0">r</tspan><tspan x="41.79" y="0">y </tspan><tspan class="cls-5" x="62.51" y="0">G</tspan><tspan x="82.25" y="0">ood</tspan></text><line class="cls-1" x1="216.5" y1="503.5" x2="216.5" y2="144.5"/><line class="cls-1" x1="216.5" y1="503.5" x2="232.67" y2="503.5"/><line class="cls-1" x1="216.5" y1="413.75" x2="232.67" y2="413.75"/><line class="cls-1" x1="216.5" y1="324" x2="232.67" y2="324"/><line class="cls-1" x1="216.5" y1="234.25" x2="232.67" y2="234.25"/><line class="cls-1" x1="216.5" y1="144.5" x2="232.67" y2="144.5"/><line class="cls-6" x1="355.14" y1="324" x2="262.71" y2="413.75"/><line class="cls-6" x1="447.57" y1="234.25" x2="355.14" y2="324"/><line class="cls-6" x1="540" y1="413.75" x2="447.57" y2="234.25"/><line class="cls-6" x1="632.43" y1="413.75" x2="540" y2="413.75"/><line class="cls-6" x1="724.86" y1="324" x2="632.43" y2="413.75"/><line class="cls-6" x1="817.29" y1="324" x2="724.86" y2="324"/><rect class="cls-7" x="259.71" y="410.75" width="6" height="6"/><rect class="cls-7" x="352.14" y="321" width="6" height="6"/><rect class="cls-7" x="444.57" y="231.25" width="6" height="6"/><rect class="cls-7" x="537" y="410.75" width="6" height="6"/><rect class="cls-7" x="629.43" y="410.75" width="6" height="6"/><rect class="cls-7" x="721.86" y="321" width="6" height="6"/><rect class="cls-7" x="814.29" y="321" width="6" height="6"/><text class="cls-2" transform="translate(797.5 531.86)"><tspan class="cls-8">S</tspan><tspan class="cls-9" x="15.04" y="0">a</tspan><tspan x="29.54" y="0">t</tspan></text><text class="cls-10" transform="translate(709.3 531.86)">F<tspan class="cls-11" x="13.98" y="0">r</tspan><tspan class="cls-12" x="24.02" y="0">i</tspan></text><text class="cls-13" transform="translate(608.23 531.86)">T<tspan class="cls-12" x="14.86" y="0">hu</tspan></text><text class="cls-2" transform="translate(511.52 531.86)"><tspan class="cls-14">W</tspan><tspan x="24.66" y="0">ed</tspan></text><text class="cls-15" transform="translate(424.76 531.86)">T<tspan class="cls-16" x="13.71" y="0">ue</tspan></text><text class="cls-2" transform="translate(326.12 531.86)"><tspan class="cls-17">M</tspan><tspan x="24.57" y="0">on</tspan></text><text class="cls-2" transform="translate(238.47 531.86)">Sun</text></svg>