<svg id="Layer_1" data-name="Layer 1" xmlns="http://www.w3.org/2000/svg" viewBox="0 0 1024 768"><defs><style>.cls-1,.cls-6{fill:none;}.cls-1,.cls-6,.cls-7{stroke:#000;stroke-miterlimit:10;}.cls-10,.cls-13,.cls-15,.cls-2{font-size:30.33px;}.cls-10,.cls-13,.cls-15,.cls-18,.cls-2{font-family:MyriadPro-Regular, Myriad Pro;}.cls-3{letter-spacing:-0.03em;}.cls-4{letter-spacing:0.03em;}.cls-5{letter-spacing:0em;}.cls-6{stroke-linecap:round;stroke-width:2px;}.cls-7{stroke-width:0.5px;}.cls-8{letter-spacing:0em;}.cls-9{letter-spacing:0em;}.cls-10{letter-spacing:-0.03em;}.cls-11{letter-spacing:0em;}.cls-12{letter-spacing:0em;}.cls-13{letter-spacing:-0.01em;}.cls-14{letter-spacing:-0.03em;}.cls-15{letter-spacing:-0.04em;}.cls-16{letter-spacing:0em;}.cls-17{letter-spacing:0.01em;}.cls-18{font-size:60px;}.cls-19{letter-spacing:0.01em;}.cls-20{letter-spacing:0.01em;}.cls-21{letter-spacing:0em;}.cls-22{letter-spacing:0.01em;}</style></defs><title>4xEmaGraph</title><line class="cls-1" x1="216.5" y1="503.5" x2="863.5" y2="503.5"/><line class="cls-1" x1="228.48" y1="503.5" x2="228.48" y2="494.52"/><line class="cls-1" x1="252.44" y1="503.5" x2="252.44" y2="494.52"/><line class="cls-1" x1="276.41" y1="503.5" x2="276.41" y2="494.52"/><line class="cls-1" x1="300.37" y1="503.5" x2="300.37" y2="494.52"/><line class="cls-1" x1="324.33" y1="503.5" x2="324.33" y2="494.52"/><line class="cls-1" x1="348.3" y1="503.5" x2="348.3" y2="494.52"/><line class="cls-1" x1="372.26" y1="503.5" x2="372.26" y2="494.52"/><line class="cls-1" x1="396.22" y1="503.5" x2="396.22" y2="494.52"/><line class="cls-1" x1="420.19" y1="503.5" x2="420.19" y2="494.52"/><line class="cls-1" x1="444.15" y1="503.5" x2="444.15" y2="494.52"/><line class="cls-1" x1="468.11" y1="503.5" x2="468.11" y2="494.52"/><line class="cls-1" x1="492.07" y1="503.5" x2="492.07" y2="494.52"/><line class="cls-1" x1="516.04" y1="503.5" x2="516.04" y2="494.52"/><line class="cls-1" x1="540" y1="503.5" x2="540" y2="494.52"/><line class="cls-1" x1="563.96" y1="503.5" x2="563.96" y2="494.52"/><line class="cls-1" x1="587.93" y1="503.5" x2="587.93" y2="494.52"/><line class="cls-1" x1="611.89" y1="503.5" x2="611.89" y2="494.52"/><line class="cls-1" x1="635.85" y1="503.5" x2="635.85" y2="494.52"/><line class="cls-1" x1="659.81" y1="503.5" x2="659.81" y2="494.52"/><line class="cls-1" x1="683.78" y1="503.5" x2="683.78" y2="494.52"/><line class="cls-1" x1="707.74" y1="503.5" x2="707.74" y2="494.52"/><line class="cls-1" x1="731.7" y1="503.5" x2="731.7" y2="494.52"/><line class="cls-1" x1="755.67" y1="503.5" x2="755.67" y2="494.52"/><line class="cls-1" x1="779.63" y1="503.5" x2="779.63" y2="494.52"/><line class="cls-1" x1="803.59" y1="503.5" x2="803.59" y2="494.52"/><line class="cls-1" x1="827.56" y1="503.5" x2="827.56" y2="494.52"/><line class="cls-1" x1="851.52" y1="503.5" x2="851.52" y2="494.52"/><text class="cls-2" transform="translate(190.83 514.87)">0</text><text class="cls-2" transform="translate(95.72 425.12)"><tspan class="cls-3">V</tspan><tspan x="15.92" y="0">e</tspan><tspan class="cls-4" x="31.12" y="0">r</tspan><tspan x="41.79" y="0">y Bad</tspan></text><text class="cls-2" transform="translate(158.23 335.37)">Bad</text><text class="cls-2" transform="translate(136.24 245.62)"><tspan class="cls-5">G</tspan><tspan x="19.74" y="0">ood</tspan></text><text class="cls-2" transform="translate(73.74 155.87)"><tspan class="cls-3">V</tspan><tspan x="15.92" y="0">e</tspan><tspan class="cls-4" x="31.12" y="0">r</tspan><tspan x="41.79" y="0">y </tspan><tspan class="cls-5" x="62.51" y="0">G</tspan><tspan x="82.25" y="0">ood</tspan></text><line class="cls-1" x1="216.5" y1="503.5" x2="216.5" y2="144.5"/><line class="cls-1" x1="216.5" y1="503.5" x2="232.67" y2="503.5"/><line class="cls-1" x1="216.5" y1="413.75" x2="232.67" y2="413.75"/><line class="cls-1" x1="216.5" y1="324" x2="232.67" y2="324"/><line class="cls-1" x1="216.5" y1="234.25" x2="232.67" y2="234.25"/><line class="cls-1" x1="216.5" y1="144.5" x2="232.67" y2="144.5"/><line class="cls-6" x1="252.44" y1="324" x2="228.48" y2="413.75"/><line class="cls-6" x1="276.41" y1="234.25" x2="252.44" y2="324"/><line class="cls-6" x1="300.37" y1="144.5" x2="276.41" y2="234.25"/><line class="cls-6" x1="324.33" y1="324" x2="300.37" y2="144.5"/><line class="cls-6" x1="348.3" y1="324" x2="324.33" y2="324"/><line class="cls-6" x1="372.26" y1="413.75" x2="348.3" y2="324"/><line class="cls-6" x1="396.22" y1="144.5" x2="372.26" y2="413.75"/><line class="cls-6" x1="420.19" y1="234.25" x2="396.22" y2="144.5"/><line class="cls-6" x1="444.15" y1="144.5" x2="420.19" y2="234.25"/><line class="cls-6" x1="468.11" y1="324" x2="444.15" y2="144.5"/><line class="cls-6" x1="492.07" y1="234.25" x2="468.11" y2="324"/><line class="cls-6" x1="516.04" y1="413.75" x2="492.07" y2="234.25"/><line class="cls-6" x1="540" y1="413.75" x2="516.04" y2="413.75"/><line class="cls-6" x1="563.96" y1="234.25" x2="540" y2="413.75"/><line class="cls-6" x1="587.93" y1="144.5" x2="563.96" y2="234.25"/><line class="cls-6" x1="611.89" y1="413.75" x2="587.93" y2="144.5"/><line class="cls-6" x1="635.85" y1="234.25" x2="611.89" y2="413.75"/><line class="cls-6" x1="659.81" y1="234.25" x2="635.85" y2="234.25"/><line class="cls-6" x1="683.78" y1="144.5" x2="659.81" y2="234.25"/><line class="cls-6" x1="707.74" y1="324" x2="683.78" y2="144.5"/><line class="cls-6" x1="731.7" y1="144.5" x2="707.74" y2="324"/><line class="cls-6" x1="755.67" y1="413.75" x2="731.7" y2="144.5"/><line class="cls-6" x1="779.63" y1="324" x2="755.67" y2="413.75"/><line class="cls-6" x1="803.59" y1="324" x2="779.63" y2="324"/><line class="cls-6" x1="827.56" y1="234.25" x2="803.59" y2="324"/><line class="cls-6" x1="851.52" y1="413.75" x2="827.56" y2="234.25"/><rect class="cls-7" x="225.48" y="410.75" width="6" height="6"/><rect class="cls-7" x="249.44" y="321" width="6" height="6"/><rect class="cls-7" x="273.41" y="231.25" width="6" height="6"/><rect class="cls-7" x="297.37" y="141.5" width="6" height="6"/><rect class="cls-7" x="321.33" y="321" width="6" height="6"/><rect class="cls-7" x="345.3" y="321" width="6" height="6"/><rect class="cls-7" x="369.26" y="410.75" width="6" height="6"/><rect class="cls-7" x="393.22" y="141.5" width="6" height="6"/><rect class="cls-7" x="417.19" y="231.25" width="6" height="6"/><rect class="cls-7" x="441.15" y="141.5" width="6" height="6"/><rect class="cls-7" x="465.11" y="321" width="6" height="6"/><rect class="cls-7" x="489.07" y="231.25" width="6" height="6"/><rect class="cls-7" x="513.04" y="410.75" width="6" height="6"/><rect class="cls-7" x="537" y="410.75" width="6" height="6"/><rect class="cls-7" x="560.96" y="231.25" width="6" height="6"/><rect class="cls-7" x="584.93" y="141.5" width="6" height="6"/><rect class="cls-7" x="608.89" y="410.75" width="6" height="6"/><rect class="cls-7" x="632.85" y="231.25" width="6" height="6"/><rect class="cls-7" x="656.81" y="231.25" width="6" height="6"/><rect class="cls-7" x="680.78" y="141.5" width="6" height="6"/><rect class="cls-7" x="704.74" y="321" width="6" height="6"/><rect class="cls-7" x="728.7" y="141.5" width="6" height="6"/><rect class="cls-7" x="752.67" y="410.75" width="6" height="6"/><rect class="cls-7" x="776.63" y="321" width="6" height="6"/><rect class="cls-7" x="800.59" y="321" width="6" height="6"/><rect class="cls-7" x="824.56" y="231.25" width="6" height="6"/><rect class="cls-7" x="848.52" y="410.75" width="6" height="6"/><text class="cls-2" transform="translate(783.8 531.86)"><tspan class="cls-8">S</tspan><tspan class="cls-9" x="15.04" y="0">a</tspan><tspan x="29.54" y="0">t</tspan></text><text class="cls-10" transform="translate(692.18 531.86)">F<tspan class="cls-11" x="13.98" y="0">r</tspan><tspan class="cls-12" x="24.02" y="0">i</tspan></text><text class="cls-13" transform="translate(587.69 531.86)">T<tspan class="cls-12" x="14.86" y="0">hu</tspan></text><text class="cls-2" transform="translate(487.56 531.86)"><tspan class="cls-14">W</tspan><tspan x="24.66" y="0">ed</tspan></text><text class="cls-15" transform="translate(397.38 531.86)">T<tspan class="cls-16" x="13.71" y="0">ue</tspan></text><text class="cls-2" transform="translate(295.31 531.86)"><tspan class="cls-17">M</tspan><tspan x="24.57" y="0">on</tspan></text><text class="cls-2" transform="translate(204.23 531.86)">Sun</text><text class="cls-18" transform="translate(318.57 618.6)"><tspan class="cls-19">M</tspan><tspan x="48.6" y="0">ood </tspan><tspan class="cls-20" x="161.04" y="0">I</tspan><tspan class="cls-21" x="175.98" y="0">nstabili</tspan><tspan class="cls-22" x="358.19" y="0">t</tspan><tspan x="378.59" y="0">y</tspan></text></svg>